<svg viewBox="0 0 16.6667 16.6667" fill="none" xmlns="http://www.w3.org/2000/svg" xmlns:xlink="http://www.w3.org/1999/xlink" x="0" y="0"><g id="arrow-right">
<path id="Vector" opacity="0.4" d="M8.3334,16.6634c4.602,0 8.333,-3.73 8.333,-8.33c0,-4.6 -3.731,-8.33 -8.333,-8.33c-4.602,0 -8.333,3.73 -8.333,8.33c0,4.6 3.731,8.33 8.333,8.33z" fill="currentColor"/>
<path id="Vector_2" d="M11.6914,7.8934l-2.5,-2.5c-0.241,-0.24 -0.641,-0.24 -0.883,0c-0.242,0.24 -0.242,0.64 0,0.88l1.433,1.43h-4.325c-0.341,0 -0.625,0.29 -0.625,0.63c0,0.34 0.284,0.62 0.625,0.62h4.325l-1.433,1.44c-0.242,0.24 -0.242,0.64 0,0.88c0.125,0.13 0.283,0.18 0.442,0.18c0.158,0 0.316,-0.05 0.441,-0.18l2.5,-2.5c0.242,-0.24 0.242,-0.64 0,-0.88z" fill="currentColor"/>
</g></svg>