<svg viewBox="0 0 16.6667 16.6667" fill="none" xmlns="http://www.w3.org/2000/svg" xmlns:xlink="http://www.w3.org/1999/xlink" x="0" y="0"><g id="arrow-right_2">
<path id="Vector_8" opacity="0.4" d="M8.3334,16.6663c4.602,0 8.333,-3.731 8.333,-8.333c0,-4.602 -3.731,-8.333 -8.333,-8.333c-4.602,0 -8.333,3.731 -8.333,8.333c0,4.602 3.731,8.333 8.333,8.333z" fill="currentColor"/>
<path id="Vector_9" d="M11.6914,7.8913l-2.5,-2.5c-0.241,-0.241 -0.641,-0.241 -0.883,0c-0.242,0.242 -0.242,0.642 0,0.884l1.433,1.433h-4.325c-0.341,0 -0.625,0.283 -0.625,0.625c0,0.342 0.284,0.625 0.625,0.625h4.325l-1.433,1.433c-0.242,0.242 -0.242,0.642 0,0.884c0.125,0.125 0.283,0.183 0.442,0.183c0.158,0 0.316,-0.058 0.441,-0.183l2.5,-2.5c0.242,-0.242 0.242,-0.642 0,-0.884z" fill="currentColor"/>
</g></svg>