<svg viewBox="0 0 20 19" fill="none" xmlns="http://www.w3.org/2000/svg" xmlns:xlink="http://www.w3.org/1999/xlink" x="0" y="0"><g id="Group_3">
<path id="Vector_17" d="M0,6c0,-1.89 0,-2.83 0.586,-3.41c0.586,-0.59 1.528,-0.59 3.414,-0.59h12c1.886,0 2.828,0 3.414,0.59c0.586,0.58 0.586,1.52 0.586,3.41c0,0.47 0,0.71 -0.146,0.85c-0.147,0.15 -0.384,0.15 -0.854,0.15h-18c-0.471,0 -0.707,0 -0.854,-0.15c-0.146,-0.14 -0.146,-0.38 -0.146,-0.85zM0,15c0,1.89 0,2.83 0.586,3.41c0.586,0.59 1.528,0.59 3.414,0.59h12c1.886,0 2.828,0 3.414,-0.59c0.586,-0.58 0.586,-1.52 0.586,-3.41v-5c0,-0.47 0,-0.71 -0.146,-0.85c-0.147,-0.15 -0.384,-0.15 -0.854,-0.15h-18c-0.471,0 -0.707,0 -0.854,0.15c-0.146,0.14 -0.146,0.38 -0.146,0.85z" fill="#C72025"/>
<path id="Vector_18" d="M5,0v3M15,0v3" stroke="#C72025" stroke-width="2" stroke-linecap="round"/>
</g></svg>