<svg width="61" height="61" fill="none" xmlns="http://www.w3.org/2000/svg"><path d="M40.454 44.712l4.258-4.258L33.459 29.2V15.208h-6.083v16.425l13.08 13.08zM30.417 60.834c-4.208 0-8.162-.799-11.863-2.396-3.7-1.598-6.92-3.765-9.657-6.5-2.738-2.736-4.904-5.955-6.5-9.658C.8 38.576.002 34.622 0 30.417c-.002-4.206.797-8.16 2.397-11.863 1.6-3.703 3.766-6.922 6.5-9.657 2.733-2.736 5.952-4.902 9.657-6.5C22.26.799 26.214 0 30.417 0c4.203 0 8.157.799 11.862 2.397 3.705 1.598 6.924 3.764 9.657 6.5 2.734 2.735 4.902 5.954 6.504 9.657 1.602 3.703 2.4 7.657 2.393 11.863-.006 4.205-.805 8.16-2.396 11.862-1.592 3.703-3.759 6.922-6.5 9.657-2.742 2.736-5.961 4.904-9.658 6.504-3.697 1.6-7.65 2.397-11.862 2.393z" fill="#C87272"/></svg>