<svg viewBox="0 0 20 20" fill="none" xmlns="http://www.w3.org/2000/svg" xmlns:xlink="http://www.w3.org/1999/xlink" x="0" y="0"><g id="SVG">
<path id="Vector_27" d="M12.2933,9.31l-2.6642,-1.78c-0.1256,-0.08 -0.2716,-0.13 -0.4224,-0.14c-0.1509,-0.01 -0.3008,0.03 -0.4339,0.1c-0.1331,0.07 -0.2443,0.18 -0.3217,0.31c-0.0774,0.13 -0.1181,0.27 -0.1178,0.43v3.55c0,0.15 0.0409,0.3 0.1185,0.43c0.0775,0.13 0.1887,0.23 0.3217,0.3c0.133,0.07 0.2829,0.11 0.4336,0.1c0.1507,-0.01 0.2965,-0.06 0.422,-0.14l2.6642,-1.78c0.1141,-0.07 0.2077,-0.18 0.2724,-0.3c0.0648,-0.12 0.0986,-0.25 0.0986,-0.39c0,-0.14 -0.0338,-0.27 -0.0986,-0.39c-0.0647,-0.12 -0.1583,-0.23 -0.2724,-0.3z" stroke="#C72025" stroke-width="1.66667" stroke-linecap="round" stroke-linejoin="round"/>
<path id="Vector_28" d="M17.5,10c0,0.98 -0.194,1.96 -0.5709,2.87c-0.3769,0.91 -0.9294,1.74 -1.6258,2.43c-0.6964,0.7 -1.5232,1.25 -2.4332,1.63c-0.9099,0.38 -1.8852,0.57 -2.8701,0.57c-0.9849,0 -1.9602,-0.19 -2.8701,-0.57c-0.91,-0.38 -1.7368,-0.93 -2.4332,-1.63c-0.6964,-0.69 -1.2489,-1.52 -1.6258,-2.43c-0.3769,-0.91 -0.5709,-1.89 -0.5709,-2.87c0,-1.99 0.7902,-3.9 2.1967,-5.3c1.4065,-1.41 3.3142,-2.2 5.3033,-2.2c1.9891,0 3.8968,0.79 5.3033,2.2c1.4065,1.4 2.1967,3.31 2.1967,5.3z" stroke="#C72025" stroke-width="1.66667" stroke-linecap="round" stroke-linejoin="round"/>
</g></svg>