<svg width="64" height="81" fill="none" xmlns="http://www.w3.org/2000/svg"><path d="M37.3 62.205l-1.946 13.737c-.087.61-.393 1.112-.919 1.505-.526.393-1.096.545-1.71.458l-13.828-1.96c-.614-.086-1.12-.391-1.515-.915-.397-.523-.551-1.09-.465-1.7l1.947-13.738c.087-.61.393-1.112.918-1.505.526-.393 1.096-.545 1.711-.458l13.827 1.96c.615.086 1.12.392 1.516.915.396.523.551 1.09.465 1.7zM60.373 30.44c-.292 2.06-.862 3.946-1.712 5.655s-1.728 3.073-2.637 4.093c-.908 1.02-2.126 2.005-3.651 2.957-1.526.951-2.748 1.625-3.666 2.02-.918.396-2.185.907-3.802 1.534-1.7.655-3.19 1.709-4.474 3.162-1.284 1.453-1.993 2.656-2.128 3.61-.092.649-.41 1.236-.955 1.763-.545.526-1.124.745-1.739.658l-13.827-1.96c-.576-.08-1.016-.503-1.32-1.266-.303-.763-.403-1.508-.3-2.233l.365-2.575c.449-3.168 2.12-5.977 5.014-8.428 2.894-2.45 5.934-4.132 9.119-5.043 2.412-.71 4.177-1.55 5.294-2.52s1.803-2.352 2.057-4.146c.227-1.603-.466-3.141-2.08-4.615-1.612-1.475-3.59-2.378-5.933-2.71-2.497-.354-4.65-.094-6.458.779-1.48.763-3.845 2.666-7.097 5.709-.586.54-1.225.76-1.916.662-.46-.065-.92-.286-1.375-.662L8.717 18.39c-.445-.452-.676-.971-.69-1.557a2.267 2.267 0 01.544-1.558c7.583-9.28 17.214-13.092 28.89-11.438 3.073.436 6.081 1.465 9.025 3.09 2.943 1.623 5.523 3.604 7.738 5.942 2.215 2.338 3.906 5.06 5.073 8.164 1.166 3.104 1.525 6.24 1.076 9.407z" fill="#C87272"/></svg>