<svg width="73" height="73" fill="none" xmlns="http://www.w3.org/2000/svg"><path d="M11.227 19.138c4.267-4.626 10.725-6.971 19.19-6.971h3.041v8.574l-2.445.49c-4.167.833-7.066 2.473-8.617 4.879a8.82 8.82 0 00-1.332 4.307h9.353a3.042 3.042 0 013.041 3.041V54.75a6.09 6.09 0 01-6.083 6.083H9.125a3.041 3.041 0 01-3.042-3.041V42.583l.01-8.878c-.028-.338-.606-8.337 5.134-14.567zm49.606 41.695h-18.25a3.042 3.042 0 01-3.041-3.041V42.583l.009-8.878c-.028-.338-.605-8.337 5.134-14.567 4.268-4.626 10.725-6.971 19.19-6.971h3.042v8.574l-2.446.49c-4.167.833-7.066 2.473-8.617 4.879a8.822 8.822 0 00-1.332 4.307h9.353a3.042 3.042 0 013.042 3.041V54.75a6.09 6.09 0 01-6.084 6.083z" fill="#fff"/></svg>