<svg viewBox="0 0 16.875 16.875" fill="none" xmlns="http://www.w3.org/2000/svg" xmlns:xlink="http://www.w3.org/1999/xlink" x="0" y="0"><g id="Group_4">
<path id="Vector_21" d="M10.6875,7.8775h-4.5c0,-0.6 0.2371,-1.17 0.659,-1.59c0.422,-0.43 0.9943,-0.66 1.591,-0.66c0.5967,0 1.169,0.23 1.591,0.66c0.4219,0.42 0.659,0.99 0.659,1.59z" stroke="#C72025" stroke-width="1.5" stroke-linecap="round" stroke-linejoin="round"/>
<path id="Vector_22" d="M6.75,3.9375c0,0.45 0.1778,0.88 0.4943,1.19c0.3164,0.32 0.7456,0.5 1.1932,0.5c0.4476,0 0.8768,-0.18 1.1932,-0.5c0.3165,-0.31 0.4943,-0.74 0.4943,-1.19c0,-0.45 -0.1778,-0.88 -0.4943,-1.19c-0.3164,-0.32 -0.7456,-0.5 -1.1932,-0.5c-0.4476,0 -0.8768,0.18 -1.1932,0.5c-0.3165,0.31 -0.4943,0.74 -0.4943,1.19z" stroke="#C72025" stroke-width="1.5" stroke-linecap="round" stroke-linejoin="round"/>
<path id="Vector_23" d="M4.5,-0.0025h7.875c0,0 2.25,0 2.25,2.25v3.38c0,0 0,2.25 -2.25,2.25h-7.875c0,0 -2.25,0 -2.25,-2.25v-3.38c0,0 0,-2.25 2.25,-2.25zM1.125,12.9375c0,0.45 0.1778,0.88 0.4943,1.19c0.3164,0.32 0.7456,0.5 1.1932,0.5c0.4476,0 0.8768,-0.18 1.1932,-0.5c0.3165,-0.31 0.4943,-0.74 0.4943,-1.19c0,-0.45 -0.1778,-0.88 -0.4943,-1.19c-0.3164,-0.32 -0.7456,-0.5 -1.1932,-0.5c-0.4476,0 -0.8768,0.18 -1.1932,0.5c-0.3165,0.31 -0.4943,0.74 -0.4943,1.19z" stroke="#C72025" stroke-width="1.5" stroke-linecap="round" stroke-linejoin="round"/>
<path id="Vector_24" d="M5.625,16.8775c-0.2719,-0.51 -0.6772,-0.94 -1.1725,-1.24c-0.4954,-0.29 -1.0623,-0.45 -1.64,-0.45c-0.5777,0 -1.1446,0.16 -1.64,0.45c-0.4953,0.3 -0.9006,0.73 -1.1725,1.24M12.375,12.9375c0,0.45 0.1778,0.88 0.4943,1.19c0.3164,0.32 0.7456,0.5 1.1932,0.5c0.4476,0 0.8768,-0.18 1.1932,-0.5c0.3165,-0.31 0.4943,-0.74 0.4943,-1.19c0,-0.45 -0.1778,-0.88 -0.4943,-1.19c-0.3164,-0.32 -0.7456,-0.5 -1.1932,-0.5c-0.4476,0 -0.8768,0.18 -1.1932,0.5c-0.3165,0.31 -0.4943,0.74 -0.4943,1.19z" stroke="#C72025" stroke-width="1.5" stroke-linecap="round" stroke-linejoin="round"/>
<path id="Vector_25" d="M16.875,16.8775c-0.2719,-0.51 -0.6772,-0.94 -1.1725,-1.24c-0.4954,-0.29 -1.0623,-0.45 -1.64,-0.45c-0.5777,0 -1.1446,0.16 -1.64,0.45c-0.4953,0.3 -0.9006,0.73 -1.1725,1.24M6.75,12.9375c0,0.45 0.1778,0.88 0.4943,1.19c0.3164,0.32 0.7456,0.5 1.1932,0.5c0.4476,0 0.8768,-0.18 1.1932,-0.5c0.3165,-0.31 0.4943,-0.74 0.4943,-1.19c0,-0.45 -0.1778,-0.88 -0.4943,-1.19c-0.3164,-0.32 -0.7456,-0.5 -1.1932,-0.5c-0.4476,0 -0.8768,0.18 -1.1932,0.5c-0.3165,0.31 -0.4943,0.74 -0.4943,1.19z" stroke="#C72025" stroke-width="1.5" stroke-linecap="round" stroke-linejoin="round"/>
<path id="Vector_26" d="M11.25,16.8775c-0.2719,-0.51 -0.6772,-0.94 -1.1725,-1.24c-0.4954,-0.29 -1.0623,-0.45 -1.64,-0.45c-0.5777,0 -1.1446,0.16 -1.64,0.45c-0.4953,0.3 -0.9006,0.73 -1.1725,1.24" stroke="#C72025" stroke-width="1.5" stroke-linecap="round" stroke-linejoin="round"/>
</g></svg>