<svg viewBox="0 0 15.924 16" fill="none" xmlns="http://www.w3.org/2000/svg" xmlns:xlink="http://www.w3.org/1999/xlink" x="0" y="0"><path id="Vector_10" d="M0,16l1.125,-4.109c-0.694,-1.202 -1.059,-2.566 -1.058,-3.964c0.002,-4.37 3.558,-7.927 7.928,-7.927c2.121,0.001 4.112,0.827 5.609,2.325c1.497,1.499 2.321,3.491 2.32,5.61c-0.002,4.371 -3.559,7.928 -7.929,7.928c-1.326,-0.001 -2.634,-0.334 -3.792,-0.966zM4.398,13.462c1.117,0.663 2.184,1.061 3.595,1.061c3.632,0 6.59,-2.956 6.592,-6.59c0.002,-3.641 -2.943,-6.593 -6.587,-6.594c-3.635,0 -6.591,2.956 -6.593,6.589c0,1.483 0.434,2.594 1.164,3.756l-0.666,2.432zM11.989,9.819c-0.049,-0.082 -0.181,-0.132 -0.38,-0.231c-0.198,-0.099 -1.172,-0.579 -1.354,-0.645c-0.181,-0.066 -0.313,-0.099 -0.446,0.1c-0.132,0.198 -0.512,0.644 -0.627,0.776c-0.115,0.132 -0.231,0.149 -0.429,0.05c-0.198,-0.1 -0.837,-0.308 -1.594,-0.984c-0.588,-0.525 -0.986,-1.174 -1.102,-1.372c-0.115,-0.198 -0.012,-0.306 0.087,-0.404c0.089,-0.089 0.198,-0.232 0.297,-0.348c0.101,-0.114 0.134,-0.197 0.2,-0.33c0.066,-0.132 0.034,-0.248 -0.016,-0.347c-0.05,-0.099 -0.446,-1.074 -0.611,-1.471c-0.161,-0.386 -0.325,-0.334 -0.446,-0.34l-0.38,-0.006c-0.132,0 -0.347,0.049 -0.528,0.248c-0.181,0.198 -0.693,0.677 -0.693,1.652c0,0.976 0.71,1.918 0.808,2.05c0.1,0.132 1.397,2.133 3.384,2.991c0.473,0.204 0.842,0.326 1.13,0.417c0.474,0.151 0.906,0.13 1.248,0.079c0.38,-0.057 1.172,-0.479 1.337,-0.942c0.165,-0.463 0.165,-0.86 0.115,-0.943z" fill="currentColor"/></svg>